<svg width="29" height="28" viewBox="0 0 29 28" fill="none" xmlns="http://www.w3.org/2000/svg">
<path fill-rule="evenodd" clip-rule="evenodd" d="M11.292 1.45825C11.7752 1.45825 12.167 1.85 12.167 2.33325V3.80396C12.9478 3.79159 13.8153 3.79159 14.7791 3.79159H14.8049C15.7687 3.79159 16.6362 3.79159 17.417 3.80396V2.33325C17.417 1.85 17.8087 1.45825 18.292 1.45825C18.7752 1.45825 19.167 1.85 19.167 2.33325V3.86576C20.9309 3.97635 22.286 4.26216 23.4017 5.07276C23.9712 5.48653 24.472 5.98736 24.8858 6.55686C25.8213 7.84446 26.0578 9.45094 26.1327 11.6366C26.167 12.6367 26.167 13.8003 26.167 15.1537V15.1794C26.167 16.5329 26.167 17.6965 26.1327 18.6965C26.0578 20.8822 25.8213 22.4887 24.8858 23.7763C24.472 24.3458 23.9712 24.8466 23.4017 25.2604C22.1141 26.1959 20.5076 26.4324 18.322 26.5073C17.3218 26.5416 16.1581 26.5416 14.8046 26.5416H14.7392C12.5966 26.5416 10.917 26.5416 9.58455 26.3972C8.22475 26.2499 7.12298 25.9439 6.18227 25.2604C5.61276 24.8466 5.11194 24.3458 4.69817 23.7763C4.0147 22.8356 3.70867 21.7338 3.56134 20.374C3.41698 19.0415 3.41698 17.362 3.41699 15.2194L3.41699 15.1537C3.41699 13.8003 3.41699 12.6367 3.45126 11.6366C3.52614 9.45094 3.76267 7.84446 4.69817 6.55686C5.11194 5.98736 5.61276 5.48653 6.18227 5.07276C7.29797 4.26216 8.65309 3.97635 10.417 3.86576V2.33325C10.417 1.85 10.8087 1.45825 11.292 1.45825ZM10.417 5.62004C8.82793 5.72933 7.91073 5.98008 7.21089 6.48854C6.78995 6.79437 6.41978 7.16455 6.11395 7.58548C5.60549 8.28532 5.35473 9.20252 5.24545 10.7916H24.3385C24.2292 9.20252 23.9785 8.28532 23.47 7.58548C23.1642 7.16455 22.794 6.79437 22.3731 6.48854C21.6733 5.98008 20.7561 5.72933 19.167 5.62004V5.83325C19.167 6.3165 18.7752 6.70825 18.292 6.70825C17.8087 6.70825 17.417 6.3165 17.417 5.83325V5.55417C16.6475 5.54164 15.7808 5.54159 14.792 5.54159C13.8032 5.54159 12.9365 5.54164 12.167 5.55417V5.83325C12.167 6.3165 11.7752 6.70825 11.292 6.70825C10.8087 6.70825 10.417 6.3165 10.417 5.83325V5.62004ZM24.4044 12.5416H5.17958C5.16705 13.3111 5.16699 14.1778 5.16699 15.1666C5.16699 17.3734 5.16819 18.9583 5.30116 20.1855C5.43235 21.3964 5.68335 22.155 6.11395 22.7477C6.41978 23.1686 6.78995 23.5388 7.21089 23.8446C7.80356 24.2752 8.56215 24.5262 9.77304 24.6574C11.0003 24.7904 12.5852 24.7916 14.792 24.7916C15.7817 24.7916 16.6491 24.7915 17.4191 24.779C17.4242 24.2252 17.4414 23.8175 17.4996 23.4505C17.9542 20.5801 20.2055 18.3288 23.0759 17.8742C23.443 17.816 23.8506 17.7988 24.4044 17.7937C24.4169 17.0237 24.417 16.1563 24.417 15.1666C24.417 14.1778 24.4169 13.3111 24.4044 12.5416ZM24.3383 19.5448C23.8659 19.5503 23.5889 19.5647 23.3497 19.6026C21.228 19.9387 19.5641 21.6026 19.228 23.7243C19.1902 23.9635 19.1757 24.2405 19.1702 24.7129C20.7573 24.6035 21.6737 24.3527 22.3731 23.8446C22.794 23.5388 23.1642 23.1686 23.47 22.7477C23.9781 22.0483 24.2289 21.1319 24.3383 19.5448Z" fill="white"/>
<path d="M10.417 16.3333C10.417 15.85 10.8087 15.4583 11.292 15.4583H18.292C18.7752 15.4583 19.167 15.85 19.167 16.3333C19.167 16.8165 18.7752 17.2083 18.292 17.2083H11.292C10.8087 17.2083 10.417 16.8165 10.417 16.3333Z" fill="#0074E0"/>
</svg>
