<svg width="29" height="28" viewBox="0 0 29 28" fill="none" xmlns="http://www.w3.org/2000/svg">
<path fill-rule="evenodd" clip-rule="evenodd" d="M14.3658 1.46276C14.2019 1.45675 14.0378 1.45675 13.874 1.46276C12.792 1.50245 11.8178 1.87036 10.7496 2.48279C9.70857 3.07961 8.51013 3.95034 6.98951 5.05514L6.90686 5.1152C5.38623 6.21999 4.18776 7.09072 3.29846 7.89632C2.38591 8.723 1.73495 9.53588 1.36287 10.5526C1.3065 10.7066 1.2558 10.8626 1.21087 11.0204C0.914283 12.0616 0.963123 13.1019 1.21548 14.3071C1.46142 15.4815 1.91919 16.8904 2.50003 18.678L2.5316 18.7752C3.11241 20.5628 3.57018 21.9716 4.06155 23.0663C4.56577 24.1897 5.1377 25.06 5.98968 25.728C6.11875 25.8293 6.25148 25.9257 6.3876 26.0172C7.28624 26.621 8.29068 26.896 9.51485 27.0284C10.7078 27.1574 12.1892 27.1574 14.0688 27.1574H14.171C16.0506 27.1574 17.5319 27.1574 18.7249 27.0284C19.9491 26.896 20.9535 26.621 21.8522 26.0172C21.9883 25.9257 22.121 25.8292 22.2501 25.728C23.1021 25.06 23.674 24.1897 24.1782 23.0663C24.6696 21.9716 25.1274 20.5627 25.7082 18.7751L25.7398 18.6779C26.3205 16.8905 26.7784 15.4815 27.0243 14.3071C27.2766 13.1019 27.3255 12.0616 27.0289 11.0204C26.984 10.8627 26.9333 10.7066 26.8769 10.5526C26.5048 9.53588 25.8538 8.723 24.9413 7.89632C24.052 7.09071 22.8535 6.21999 21.3329 5.11519L21.2502 5.05512C19.7296 3.95033 18.5312 3.07961 17.4902 2.48279C16.422 1.87036 15.4478 1.50245 14.3658 1.46276ZM13.9381 3.21159C14.0592 3.20714 14.1805 3.20714 14.3017 3.21159C14.9963 3.23707 15.6882 3.46687 16.6198 4.00097C17.5692 4.54529 18.6919 5.35954 20.263 6.50096C21.834 7.64238 22.9553 8.45855 23.7664 9.19328C24.5622 9.91423 24.9946 10.5012 25.2335 11.154C25.2752 11.2679 25.3126 11.3832 25.3458 11.4998C25.5363 12.1683 25.5315 12.8974 25.3114 13.9484C25.0871 15.0195 24.6597 16.3389 24.0596 18.1858C23.4595 20.0327 23.0298 21.3513 22.5817 22.3497C22.1419 23.3294 21.7173 23.922 21.1702 24.3509C21.0749 24.4257 20.9767 24.497 20.8761 24.5646C20.2991 24.9523 19.6043 25.1731 18.5367 25.2886C17.4487 25.4062 16.0618 25.4074 14.1199 25.4074C12.178 25.4074 10.7911 25.4062 9.70304 25.2886C8.63543 25.1731 7.94062 24.9523 7.36363 24.5646C7.26301 24.497 7.16491 24.4257 7.06952 24.3509C6.52249 23.922 6.09782 23.3294 5.65809 22.3497C5.20995 21.3513 4.78024 20.0326 4.18016 18.1858C3.58008 16.3389 3.15263 15.0195 2.92834 13.9484C2.70825 12.8974 2.7035 12.1683 2.89393 11.4998C2.92714 11.3832 2.96461 11.2679 3.00627 11.154C3.24517 10.5012 3.67753 9.91423 4.47337 9.19328C5.28442 8.45855 6.40577 7.64238 7.9768 6.50096C9.54782 5.35954 10.6706 4.54529 11.62 4.00097C12.5516 3.46687 13.2434 3.23707 13.9381 3.21159Z" fill="#272A2D"/>
<path d="M11.7871 19.9145C11.3039 19.9145 10.9121 20.3062 10.9121 20.7895C10.9121 21.2727 11.3039 21.6645 11.7871 21.6645H16.4538C16.937 21.6645 17.3288 21.2727 17.3288 20.7895C17.3288 20.3062 16.937 19.9145 16.4538 19.9145H11.7871Z" fill="#0074E0"/>
</svg>
