<svg width="29" height="28" viewBox="0 0 29 28" fill="none" xmlns="http://www.w3.org/2000/svg">
<path d="M17.9623 2.63347C17.2557 2.625 16.4774 2.625 15.6222 2.625H13.2324C11.0897 2.62499 9.4102 2.62498 8.07771 2.76935C6.71792 2.91667 5.61614 3.22271 4.67543 3.90618C4.10593 4.31995 3.6051 4.82077 3.19133 5.39027C3.01096 5.63854 2.85529 5.90023 2.72143 6.17804C2.2895 7.07442 2.09699 8.11424 2.00321 9.35555C1.91015 10.5873 1.91015 12.0992 1.91016 13.9661V14.0528C1.91015 16.1954 1.91014 17.875 2.05451 19.2074C2.20183 20.5672 2.50787 21.669 3.19133 22.6097C3.6051 23.1792 4.10593 23.6801 4.67543 24.0938C5.61614 24.7773 6.71792 25.0833 8.07771 25.2306C9.41018 25.375 11.0897 25.375 13.2323 25.375H15.6713C17.8139 25.375 19.4935 25.375 20.8259 25.2306C22.1857 25.0833 23.2875 24.7773 24.2282 24.0938C24.7977 23.6801 25.2985 23.1792 25.7123 22.6097C26.3958 21.669 26.7018 20.5672 26.8491 19.2074C26.9935 17.875 26.9935 16.1955 26.9935 14.0529V13.9961C26.9935 13.1288 26.9935 12.3406 26.9847 11.6259C26.9787 11.1427 26.5821 10.7559 26.0989 10.7618C25.6157 10.7678 25.2288 11.1644 25.2348 11.6476C25.2435 12.3503 25.2435 13.1283 25.2435 14C25.2435 16.2068 25.2423 17.7917 25.1093 19.0189C24.9781 20.2298 24.7271 20.9884 24.2965 21.5811C23.9907 22.002 23.6205 22.3722 23.1996 22.678C22.6069 23.1086 21.8483 23.3596 20.6374 23.4908C19.4102 23.6238 17.8253 23.625 15.6185 23.625H13.2852C11.0783 23.625 9.49348 23.6238 8.26621 23.4908C7.05531 23.3596 6.29673 23.1086 5.70405 22.678C5.28312 22.3722 4.91294 22.002 4.60711 21.5811C4.17651 20.9884 3.92552 20.2298 3.79432 19.0189C3.66136 17.7917 3.66016 16.2068 3.66016 14C3.66016 12.0923 3.66073 10.6458 3.74824 9.48738C3.78553 8.99373 3.83784 8.56754 3.90832 8.19394L5.63084 9.91645C7.53516 11.8208 9.02754 13.3132 10.3485 14.3211C11.7006 15.3527 12.9755 15.9588 14.4518 15.9588C16.7046 15.9588 18.5203 14.5406 20.8906 12.2684C21.2395 11.934 21.2512 11.3801 20.9168 11.0313C20.5824 10.6824 20.0285 10.6707 19.6797 11.0051C17.2553 13.3289 15.9139 14.2088 14.4518 14.2088C13.5119 14.2088 12.6065 13.8426 11.41 12.9298C10.1934 12.0015 8.7829 10.5936 6.82096 8.6317L4.60755 6.41829C4.9133 5.99761 5.28332 5.62764 5.70406 5.32196C6.29673 4.89136 7.05531 4.64036 8.26621 4.50917C9.49348 4.3762 11.0783 4.375 13.2852 4.375H15.6185C16.478 4.375 17.2463 4.37501 17.9413 4.38334C18.4246 4.38914 18.821 4.00211 18.8268 3.5189C18.8326 3.03568 18.4455 2.63926 17.9623 2.63347Z" fill="white"/>
<path fill-rule="evenodd" clip-rule="evenodd" d="M23.7845 2.625C22.0126 2.625 20.5762 4.06142 20.5762 5.83333C20.5762 7.60525 22.0126 9.04167 23.7845 9.04167C25.5564 9.04167 26.9928 7.60525 26.9928 5.83333C26.9928 4.06142 25.5564 2.625 23.7845 2.625ZM22.3262 5.83333C22.3262 5.02792 22.9791 4.375 23.7845 4.375C24.5899 4.375 25.2428 5.02792 25.2428 5.83333C25.2428 6.63875 24.5899 7.29167 23.7845 7.29167C22.9791 7.29167 22.3262 6.63875 22.3262 5.83333Z" fill="#0074E0"/>
</svg>
