<svg width="28" height="29" viewBox="0 0 28 29" fill="none" xmlns="http://www.w3.org/2000/svg">
<path fill-rule="evenodd" clip-rule="evenodd" d="M12.9513 1.95837C8.98979 1.95837 5.92475 5.43041 6.41611 9.3613L6.50869 10.102C6.64416 11.1857 6.24828 12.2683 5.4456 13.009C3.78231 14.5438 3.3202 16.9868 4.30796 19.0231L4.42853 19.2717C5.29899 21.0662 7.06642 22.2415 9.03949 22.3644L9.25915 22.7409C10.4407 24.7665 12.2818 25.875 14.215 25.875C16.1482 25.875 17.9892 24.7665 19.1708 22.7409L19.3939 22.3585C21.0514 22.2275 22.5628 21.3266 23.4642 19.9103C24.8434 17.7433 24.4781 14.9005 22.5959 13.1525L22.5447 13.1049C22.3153 12.8919 22.117 12.6531 21.9522 12.3953C21.6919 11.9881 21.1509 11.869 20.7437 12.1293C20.3365 12.3896 20.2174 12.9306 20.4777 13.3378C20.7215 13.7192 21.0148 14.0724 21.3538 14.3873L21.405 14.4348C22.6684 15.6081 22.9135 17.5162 21.9878 18.9707C21.3321 20.0011 20.1953 20.625 18.974 20.625H18.8982C18.8949 20.625 18.8917 20.6249 18.8884 20.6249C18.8811 20.6249 18.8739 20.6249 18.8667 20.625H9.56325C9.55274 20.6249 9.54222 20.6248 9.5317 20.625H9.38302C7.94385 20.625 6.63117 19.8028 6.00307 18.5079L5.8825 18.2594C5.2314 16.9171 5.53601 15.3068 6.63239 14.2951C7.85012 13.1714 8.4507 11.5291 8.24518 9.88489L8.1526 9.14424C7.7918 6.25784 10.0424 3.70837 12.9513 3.70837H14.938C16.243 3.70837 17.4128 4.21895 18.2777 5.04385C18.6274 5.37738 19.1813 5.36427 19.5148 5.01457C19.8483 4.66487 19.8352 4.111 19.4855 3.77748C18.3094 2.65574 16.7121 1.95837 14.938 1.95837H12.9513ZM14.215 24.125C13.1403 24.125 11.9937 23.5857 11.1078 22.375H17.3221C16.4362 23.5857 15.2896 24.125 14.215 24.125Z" fill="white"/>
<path d="M22.3815 8.66671C22.3815 9.95537 21.3368 11 20.0482 11C18.7595 11 17.7148 9.95537 17.7148 8.66671C17.7148 7.37804 18.7595 6.33337 20.0482 6.33337C21.3368 6.33337 22.3815 7.37804 22.3815 8.66671Z" fill="#F53125"/>
</svg>
