<svg width="18" height="18" viewBox="0 0 18 18" fill="none" xmlns="http://www.w3.org/2000/svg">
<path d="M1.6875 2.09149V15.9079C1.68759 15.9379 1.69653 15.9672 1.7132 15.9921C1.72987 16.017 1.75352 16.0364 1.78119 16.0479C1.80886 16.0595 1.83932 16.0626 1.86875 16.0569C1.89817 16.0511 1.92526 16.0369 1.9466 16.0158L9.14062 9.00004L1.9466 1.98356C1.92526 1.96251 1.89817 1.94824 1.86875 1.94252C1.83932 1.93681 1.80886 1.93991 1.78119 1.95144C1.75352 1.96296 1.72987 1.9824 1.7132 2.00732C1.69653 2.03223 1.68759 2.06151 1.6875 2.09149ZM12.157 6.11723L3.13664 1.14754L3.13102 1.14438C2.97562 1.06 2.82797 1.27024 2.95523 1.39258L10.0262 8.15383L12.157 6.11723ZM2.95594 16.6075C2.82797 16.7298 2.97562 16.9401 3.13172 16.8557L3.13734 16.8525L12.157 11.8829L10.0262 9.84555L2.95594 16.6075ZM15.7985 8.12114L13.2796 6.73387L10.9111 9.00004L13.2796 11.2652L15.7985 9.87895C16.4837 9.50032 16.4837 8.49977 15.7985 8.12114Z" fill="white"/>
</svg>
