<svg width="20" height="20" viewBox="0 0 20 20" fill="none" xmlns="http://www.w3.org/2000/svg">
<g clip-path="url(#clip0_2015_663)">
<rect y="0.0194092" width="19.9166" height="19.9161" rx="9.95805" fill="white"/>
<path d="M9.95805 19.9355C4.45822 19.9355 0 15.4773 0 9.97745V3.00682C0 2.21451 0.314745 1.45465 0.874993 0.894403C1.43524 0.334154 2.1951 0.0194092 2.98741 0.0194092H9.46014V4.388C9.46014 5.3848 9.3994 6.41745 8.8766 7.26588C8.50231 7.8739 8.00163 8.39431 7.40852 8.79181C6.81541 9.18931 6.14374 9.45459 5.43909 9.56967L5.24839 9.60054C5.16977 9.62741 5.10153 9.6782 5.0532 9.74578C5.00488 9.81337 4.9789 9.89437 4.9789 9.97745C4.9789 10.0605 5.00488 10.1415 5.0532 10.2091C5.10153 10.2767 5.16977 10.3275 5.24839 10.3544L5.43909 10.3852C6.46866 10.5534 7.41941 11.0408 8.15708 11.7784C8.89475 12.5161 9.38208 13.4668 9.55027 14.4964L9.58114 14.6871C9.60801 14.7657 9.65879 14.834 9.72638 14.8823C9.79396 14.9306 9.87496 14.9566 9.95805 14.9566C10.0411 14.9566 10.1221 14.9306 10.1897 14.8823C10.2573 14.834 10.3081 14.7657 10.335 14.6871L10.3658 14.4964C10.4809 13.7917 10.7462 13.1201 11.1437 12.527C11.5412 11.9338 12.0616 11.4332 12.6696 11.0589C13.518 10.5361 14.5507 10.4754 15.5475 10.4754H19.9041C19.6437 15.7437 15.2906 19.9355 9.95805 19.9355Z" fill="#FECE25"/>
<path d="M19.9166 9.47956H15.548C14.5512 9.47956 13.5186 9.41881 12.6701 8.89601C12.0069 8.48736 11.4487 7.92908 11.04 7.26588C10.5172 6.41746 10.4565 5.38481 10.4565 4.38801V0.0194142H16.9292C17.7215 0.0194142 18.4814 0.334159 19.0416 0.894408C19.6019 1.45466 19.9166 2.21452 19.9166 3.00683V9.47956Z" fill="#FECE25"/>
</g>
<rect x="0.66387" y="0.683279" width="18.5889" height="18.5884" rx="9.29418" stroke="#FBE8A6" stroke-width="1.32774"/>
<defs>
<clipPath id="clip0_2015_663">
<rect y="0.0194092" width="19.9166" height="19.9161" rx="9.95805" fill="white"/>
</clipPath>
</defs>
</svg>
