<svg width="29" height="28" viewBox="0 0 29 28" fill="none" xmlns="http://www.w3.org/2000/svg">
<path fill-rule="evenodd" clip-rule="evenodd" d="M14.6217 1.45825C11.5612 1.45825 9.08008 3.93934 9.08008 6.99992C9.08008 10.0605 11.5612 12.5416 14.6217 12.5416C17.6823 12.5416 20.1634 10.0605 20.1634 6.99992C20.1634 3.93934 17.6823 1.45825 14.6217 1.45825ZM10.8301 6.99992C10.8301 4.90584 12.5277 3.20825 14.6217 3.20825C16.7158 3.20825 18.4134 4.90584 18.4134 6.99992C18.4134 9.094 16.7158 10.7916 14.6217 10.7916C12.5277 10.7916 10.8301 9.094 10.8301 6.99992Z" fill="white"/>
<path fill-rule="evenodd" clip-rule="evenodd" d="M11.1217 14.2916C8.06117 14.2916 5.58008 16.7727 5.58008 19.8333C5.58008 22.8939 8.06117 25.375 11.1217 25.375H18.1217C21.1823 25.375 23.6634 22.8939 23.6634 19.8333C23.6634 16.7727 21.1823 14.2916 18.1217 14.2916H11.1217ZM7.33008 19.8333C7.33008 17.7392 9.02767 16.0416 11.1217 16.0416H18.1217C20.2158 16.0416 21.9134 17.7392 21.9134 19.8333C21.9134 21.9274 20.2158 23.625 18.1217 23.625H11.1217C9.02767 23.625 7.33008 21.9274 7.33008 19.8333Z" fill="#0074E0"/>
</svg>
