<svg width="157" height="37" viewBox="0 0 157 37" fill="none" xmlns="http://www.w3.org/2000/svg">
<g clip-path="url(#clip0_2015_490)">
<path d="M12.6158 30.12C5.64578 30.12 -0.0042038 24.47 -0.0042038 17.5V8.66595C-0.0042038 7.66184 0.394678 6.69885 1.10469 5.98884C1.81471 5.27882 2.77769 4.87994 3.78181 4.87994H11.9848V10.4163C11.9848 11.6796 11.9078 12.9883 11.2453 14.0635C10.7709 14.8341 10.1364 15.4936 9.38475 15.9974C8.63309 16.5011 7.78188 16.8373 6.88885 16.9832L6.64718 17.0223C6.54755 17.0564 6.46106 17.1207 6.39982 17.2064C6.33858 17.292 6.30565 17.3947 6.30565 17.5C6.30565 17.6053 6.33858 17.7079 6.39982 17.7936C6.46106 17.8792 6.54755 17.9436 6.64718 17.9776L6.88885 18.0168C8.19366 18.2299 9.39855 18.8475 10.3334 19.7824C11.2683 20.7172 11.8859 21.9221 12.099 23.2269L12.1382 23.4686C12.1722 23.5682 12.2366 23.6547 12.3222 23.716C12.4079 23.7772 12.5105 23.8101 12.6158 23.8101C12.7211 23.8101 12.8238 23.7772 12.9094 23.716C12.9951 23.6547 13.0594 23.5682 13.0935 23.4686L13.1326 23.2269C13.2784 22.3339 13.6146 21.4827 14.1184 20.731C14.6221 19.9793 15.2817 19.3448 16.0523 18.8705C17.1275 18.208 18.4362 18.131 19.6994 18.131H25.2207C24.8907 24.8076 19.3738 30.12 12.6158 30.12Z" fill="#F07CF2"/>
<path d="M25.2402 16.8692H19.7038C18.4406 16.8692 17.1319 16.7922 16.0566 16.1296C15.2162 15.6117 14.5086 14.9042 13.9907 14.0637C13.3282 12.9885 13.2512 11.6798 13.2512 10.4165V4.88012H21.4542C22.4583 4.88013 23.4213 5.27901 24.1313 5.98902C24.8414 6.69903 25.2402 7.66202 25.2402 8.66613V16.8692ZM0.000179291 28.8582C0.000179291 28.5235 0.133141 28.2025 0.369812 27.9658C0.606483 27.7291 0.927479 27.5962 1.26218 27.5962C1.59689 27.5962 1.91788 27.7291 2.15455 27.9658C2.39123 28.2025 2.52419 28.5235 2.52419 28.8582C2.52419 29.1929 2.39123 29.5139 2.15455 29.7505C1.91788 29.9872 1.59689 30.1202 1.26218 30.1202C0.927479 30.1202 0.606483 29.9872 0.369812 29.7505C0.133141 29.5139 0.000179291 29.1929 0.000179291 28.8582Z" fill="#007DFC"/>
</g>
<path d="M39.6902 29.5V6.7787H43.838V25.8402H53.5669V29.5H39.6902ZM63.722 29.866C62.0954 29.866 60.6111 29.4898 59.2692 28.7375C57.9476 27.9852 56.8903 26.9585 56.0974 25.6572C55.3247 24.3559 54.9384 22.8717 54.9384 21.2044C54.9384 19.5372 55.3247 18.0529 56.0974 16.7517C56.8903 15.4504 57.9476 14.4236 59.2692 13.6713C60.5908 12.919 62.075 12.5429 63.722 12.5429C65.3485 12.5429 66.8226 12.919 68.1442 13.6713C69.4658 14.4236 70.5129 15.4504 71.2856 16.7517C72.0785 18.0326 72.475 19.5169 72.475 21.2044C72.475 22.8717 72.0785 24.3559 71.2856 25.6572C70.4926 26.9585 69.4353 27.9852 68.1137 28.7375C66.7921 29.4898 65.3282 29.866 63.722 29.866ZM63.722 26.2062C64.6166 26.2062 65.3994 25.9927 66.0703 25.5657C66.7616 25.1387 67.3004 24.5491 67.6868 23.7968C68.0934 23.0242 68.2967 22.1601 68.2967 21.2044C68.2967 20.2285 68.0934 19.3745 67.6868 18.6426C67.3004 17.8903 66.7616 17.3006 66.0703 16.8737C65.3994 16.4264 64.6166 16.2027 63.722 16.2027C62.807 16.2027 62.0039 16.4264 61.3126 16.8737C60.6213 17.3006 60.0723 17.8903 59.6657 18.6426C59.2794 19.3745 59.0862 20.2285 59.0862 21.2044C59.0862 22.1601 59.2794 23.0242 59.6657 23.7968C60.0723 24.5491 60.6213 25.1387 61.3126 25.5657C62.0039 25.9927 62.807 26.2062 63.722 26.2062ZM76.9149 36.2401C76.4676 36.2401 76.0304 36.1995 75.6035 36.1182C75.1765 36.0572 74.7902 35.9453 74.4445 35.7827V32.4278C74.7088 32.4888 75.024 32.5498 75.39 32.6108C75.7763 32.6718 76.1321 32.7023 76.4574 32.7023C77.3724 32.7023 78.0332 32.4888 78.4398 32.0619C78.8668 31.6349 79.2429 31.0758 79.5683 30.3845L80.6662 27.8226L80.6052 31.1774L73.3771 12.9089H77.6774L82.7401 26.3892H81.2152L86.2474 12.9089H90.5782L83.3501 31.1774C82.9231 32.255 82.4046 33.17 81.7946 33.9223C81.1847 34.6746 80.473 35.2439 79.6598 35.6302C78.8668 36.0368 77.9518 36.2401 76.9149 36.2401ZM96.9037 29.866C95.7448 29.866 94.7383 29.6728 93.8844 29.2865C93.0304 28.9002 92.3696 28.3512 91.902 27.6396C91.4344 26.9076 91.2005 26.0638 91.2005 25.1082C91.2005 24.1933 91.4039 23.38 91.8105 22.6684C92.2171 21.9364 92.8474 21.3264 93.7014 20.8385C94.5554 20.3505 95.633 20.0048 96.9342 19.8015L102.363 18.9171V21.9669L97.6967 22.7599C96.9037 22.9022 96.3141 23.1563 95.9278 23.5223C95.5415 23.8883 95.3483 24.3661 95.3483 24.9557C95.3483 25.525 95.5618 25.9825 95.9888 26.3282C96.4361 26.6535 96.9851 26.8161 97.6357 26.8161C98.4693 26.8161 99.2013 26.6433 99.8316 26.2977C100.482 25.9317 100.98 25.4335 101.326 24.8032C101.692 24.1729 101.875 23.4817 101.875 22.7294V18.4596C101.875 17.748 101.59 17.1583 101.021 16.6907C100.472 16.2027 99.7401 15.9587 98.8251 15.9587C97.9712 15.9587 97.2087 16.1925 96.5378 16.6602C95.8871 17.1075 95.4093 17.7073 95.1043 18.4596L91.841 16.8737C92.1663 15.9994 92.6746 15.2471 93.3659 14.6168C94.0775 13.9662 94.9112 13.4578 95.8668 13.0919C96.8224 12.7259 97.8593 12.5429 98.9776 12.5429C100.34 12.5429 101.539 12.797 102.576 13.3054C103.613 13.7933 104.417 14.4846 104.986 15.3792C105.575 16.2535 105.87 17.2803 105.87 18.4596V29.5H102.088V26.6636L102.942 26.6027C102.515 27.3143 102.007 27.9141 101.417 28.4021C100.828 28.8697 100.157 29.2357 99.4046 29.5C98.6523 29.744 97.8187 29.866 96.9037 29.866ZM115.175 29.866C113.894 29.866 112.775 29.5813 111.82 29.012C110.885 28.4427 110.163 27.6498 109.654 26.6332C109.166 25.6165 108.922 24.4271 108.922 23.0648V12.9089H112.918V22.7294C112.918 23.4207 113.05 24.0306 113.314 24.5593C113.599 25.0676 113.995 25.4742 114.504 25.7792C115.032 26.0638 115.622 26.2062 116.273 26.2062C116.923 26.2062 117.503 26.0638 118.011 25.7792C118.519 25.4742 118.916 25.0574 119.2 24.5288C119.485 24.0001 119.627 23.3698 119.627 22.6379V12.9089H123.623V29.5H119.841V26.2367L120.176 26.8161C119.79 27.8328 119.15 28.5952 118.255 29.1035C117.381 29.6118 116.354 29.866 115.175 29.866ZM134.595 29.683C132.725 29.683 131.271 29.1747 130.234 28.1581C129.217 27.1211 128.709 25.6674 128.709 23.7968V16.4772H125.842V12.9089H126.147C126.96 12.9089 127.591 12.6954 128.038 12.2684C128.485 11.8414 128.709 11.2213 128.709 10.408V9.12707H132.704V12.9089H136.517V16.4772H132.704V23.5833C132.704 24.1323 132.796 24.5999 132.979 24.9862C133.182 25.3726 133.487 25.6674 133.894 25.8707C134.321 26.074 134.86 26.1757 135.51 26.1757C135.652 26.1757 135.815 26.1655 135.998 26.1452C136.201 26.1248 136.395 26.1045 136.578 26.0842V29.5C136.293 29.5407 135.968 29.5813 135.602 29.622C135.236 29.6627 134.9 29.683 134.595 29.683ZM147.045 29.866C145.337 29.866 143.842 29.4797 142.561 28.707C141.281 27.9344 140.284 26.8873 139.573 25.5657C138.861 24.2441 138.505 22.7802 138.505 21.1739C138.505 19.5067 138.861 18.0326 139.573 16.7517C140.305 15.4504 141.291 14.4236 142.531 13.6713C143.792 12.919 145.195 12.5429 146.74 12.5429C148.041 12.5429 149.18 12.7564 150.156 13.1834C151.152 13.6103 151.996 14.2 152.687 14.9523C153.378 15.7046 153.907 16.5687 154.273 17.5446C154.639 18.5002 154.822 19.5372 154.822 20.6555C154.822 20.9401 154.802 21.2349 154.761 21.5399C154.741 21.8449 154.69 22.1092 154.608 22.3329H141.799V19.283H152.351L150.461 20.7165C150.644 19.7812 150.593 18.9476 150.308 18.2156C150.044 17.4836 149.596 16.9042 148.966 16.4772C148.356 16.0502 147.614 15.8367 146.74 15.8367C145.906 15.8367 145.164 16.0502 144.513 16.4772C143.863 16.8838 143.365 17.4938 143.019 18.3071C142.694 19.1 142.572 20.0658 142.653 21.2044C142.572 22.2211 142.704 23.1258 143.049 23.9188C143.415 24.6914 143.944 25.2912 144.635 25.7182C145.347 26.1452 146.16 26.3587 147.075 26.3587C147.99 26.3587 148.763 26.1655 149.393 25.7792C150.044 25.3929 150.552 24.8744 150.918 24.2238L154.151 25.8097C153.826 26.6027 153.317 27.3041 152.626 27.9141C151.935 28.5241 151.111 29.0019 150.156 29.3475C149.22 29.6932 148.183 29.866 147.045 29.866ZM144.696 9.98103L146.679 4.70481H151.863L148.631 9.98103H144.696Z" fill="white"/>
<defs>
<clipPath id="clip0_2015_490">
<rect width="25.2401" height="25.2401" fill="white" transform="matrix(-1 0 0 -1 25.2402 30.1201)"/>
</clipPath>
</defs>
</svg>
